<mxfile host="app.diagrams.net" modified="2023-12-05T02:09:22.133Z" agent="Mozilla/5.0 (Windows NT 10.0; Win64; x64) AppleWebKit/537.36 (KHTML, like Gecko) Chrome/119.0.0.0 Safari/537.36" etag="78r-pbrvudduI0Fvv1KL" version="22.1.5" type="device">
  <diagram name="Σελίδα-1" id="8zMN-HAiHBXrw5jjUvSl">
    <mxGraphModel dx="1450" dy="984" grid="0" gridSize="10" guides="1" tooltips="1" connect="1" arrows="1" fold="1" page="0" pageScale="1" pageWidth="827" pageHeight="1169" math="0" shadow="0">
      <root>
        <mxCell id="0" />
        <mxCell id="1" parent="0" />
        <mxCell id="np4LIY_d9qCmT1G7eFhq-1" value="GR-IX" style="ellipse;whiteSpace=wrap;html=1;fontSize=16;fillColor=#B9E0A5;strokeColor=#36393d;fillStyle=auto;gradientColor=none;" vertex="1" parent="1">
          <mxGeometry x="70" y="138" width="120" height="80" as="geometry" />
        </mxCell>
        <mxCell id="np4LIY_d9qCmT1G7eFhq-2" value="Vodafone&lt;br&gt;AS3329" style="ellipse;whiteSpace=wrap;html=1;fontSize=16;fillColor=#67AB9F;" vertex="1" parent="1">
          <mxGeometry x="-89" y="58" width="120" height="80" as="geometry" />
        </mxCell>
        <mxCell id="np4LIY_d9qCmT1G7eFhq-3" value="Nova&lt;br&gt;AS25472" style="ellipse;whiteSpace=wrap;html=1;fontSize=16;fillColor=#67AB9F;" vertex="1" parent="1">
          <mxGeometry x="229" y="228" width="120" height="80" as="geometry" />
        </mxCell>
        <mxCell id="np4LIY_d9qCmT1G7eFhq-4" value="Ote&lt;br&gt;AS6799" style="ellipse;whiteSpace=wrap;html=1;fontSize=16;fillColor=#67AB9F;strokeColor=#36393d;" vertex="1" parent="1">
          <mxGeometry x="70" y="-22" width="120" height="80" as="geometry" />
        </mxCell>
        <mxCell id="np4LIY_d9qCmT1G7eFhq-5" value="Cosmote&lt;br&gt;AS29247" style="ellipse;whiteSpace=wrap;html=1;fontSize=16;fillColor=#67AB9F;" vertex="1" parent="1">
          <mxGeometry x="229" y="58" width="120" height="80" as="geometry" />
        </mxCell>
        <mxCell id="np4LIY_d9qCmT1G7eFhq-7" value="" style="endArrow=none;html=1;rounded=0;fontSize=12;startSize=8;endSize=8;curved=1;exitX=0.5;exitY=1;exitDx=0;exitDy=0;entryX=0.5;entryY=0;entryDx=0;entryDy=0;" edge="1" parent="1" source="np4LIY_d9qCmT1G7eFhq-4" target="np4LIY_d9qCmT1G7eFhq-1">
          <mxGeometry width="50" height="50" relative="1" as="geometry">
            <mxPoint x="119" y="134" as="sourcePoint" />
            <mxPoint x="169" y="84" as="targetPoint" />
          </mxGeometry>
        </mxCell>
        <mxCell id="np4LIY_d9qCmT1G7eFhq-8" value="" style="endArrow=none;html=1;rounded=0;fontSize=12;startSize=8;endSize=8;curved=1;entryX=0;entryY=1;entryDx=0;entryDy=0;exitX=1;exitY=0;exitDx=0;exitDy=0;" edge="1" parent="1" source="np4LIY_d9qCmT1G7eFhq-1" target="np4LIY_d9qCmT1G7eFhq-5">
          <mxGeometry width="50" height="50" relative="1" as="geometry">
            <mxPoint x="119" y="134" as="sourcePoint" />
            <mxPoint x="169" y="84" as="targetPoint" />
          </mxGeometry>
        </mxCell>
        <mxCell id="np4LIY_d9qCmT1G7eFhq-9" value="" style="endArrow=none;html=1;rounded=0;fontSize=12;startSize=8;endSize=8;curved=1;exitX=1;exitY=1;exitDx=0;exitDy=0;entryX=0;entryY=0;entryDx=0;entryDy=0;" edge="1" parent="1" source="np4LIY_d9qCmT1G7eFhq-2" target="np4LIY_d9qCmT1G7eFhq-1">
          <mxGeometry width="50" height="50" relative="1" as="geometry">
            <mxPoint x="119" y="134" as="sourcePoint" />
            <mxPoint x="169" y="84" as="targetPoint" />
          </mxGeometry>
        </mxCell>
        <mxCell id="np4LIY_d9qCmT1G7eFhq-10" value="" style="endArrow=none;html=1;rounded=0;fontSize=12;startSize=8;endSize=8;curved=1;entryX=0;entryY=0;entryDx=0;entryDy=0;exitX=1;exitY=1;exitDx=0;exitDy=0;" edge="1" parent="1" source="np4LIY_d9qCmT1G7eFhq-1" target="np4LIY_d9qCmT1G7eFhq-3">
          <mxGeometry width="50" height="50" relative="1" as="geometry">
            <mxPoint x="119" y="134" as="sourcePoint" />
            <mxPoint x="169" y="84" as="targetPoint" />
          </mxGeometry>
        </mxCell>
      </root>
    </mxGraphModel>
  </diagram>
</mxfile>
